<svg viewBox="0 0 1200 200" xmlns="http://www.w3.org/2000/svg" style="background:transparent">
  <g>
    <rect x="0" y="150" width="1200" height="50" fill="#2A2B2E" />
    <rect x="50" y="100" width="80" height="100" fill="#5A5A66" stroke="#ACEB98" stroke-width="4" />
    <rect x="200" y="120" width="60" height="80" fill="#ACEB98" stroke="#87FF65" stroke-width="3" />
    <rect x="300" y="80" width="100" height="120" fill="#5A5A66" stroke="#ACEB98" stroke-width="4" />
    <rect x="450" y="130" width="50" height="70" fill="#ACEB98" stroke="#87FF65" stroke-width="3" />
    <rect x="600" y="90" width="120" height="110" fill="#5A5A66" stroke="#ACEB98" stroke-width="4" />
    <rect x="800" y="110" width="80" height="90" fill="#ACEB98" stroke="#87FF65" stroke-width="3" />
    <rect x="950" y="70" width="100" height="130" fill="#5A5A66" stroke="#ACEB98" stroke-width="4" />
    <rect x="1100" y="140" width="60" height="60" fill="#ACEB98" stroke="#87FF65" stroke-width="3" />
    <!-- Neon windows -->
    <rect x="70" y="130" width="10" height="20" fill="#87FF65" />
    <rect x="220" y="150" width="8" height="15" fill="#ACEB98" />
    <rect x="320" y="110" width="12" height="25" fill="#87FF65" />
    <rect x="470" y="150" width="7" height="18" fill="#ACEB98" />
    <rect x="620" y="120" width="10" height="20" fill="#87FF65" />
    <rect x="820" y="140" width="8" height="15" fill="#ACEB98" />
    <rect x="970" y="110" width="12" height="25" fill="#87FF65" />
    <rect x="1120" y="160" width="7" height="18" fill="#ACEB98" />
    <!-- Neon sign -->
    <rect x="550" y="160" width="100" height="20" rx="10" fill="#87FF65" stroke="#ACEB98" stroke-width="2" />
    <text x="600" y="175" font-family="'Press Start 2P', monospace" font-size="16" fill="#2A2B2E" text-anchor="middle">Erevos</text>
  </g>
</svg>